<?xml version="1.0" encoding="utf-8"?>
<!-- Generator: Adobe Illustrator 19.1.1, SVG Export Plug-In . SVG Version: 6.00 Build 0)  -->
<svg version="1.1" id="Слой_1" xmlns="http://www.w3.org/2000/svg" xmlns:xlink="http://www.w3.org/1999/xlink" x="0px" y="0px"
	 viewBox="0 0 33.293 32.896" style="enable-background:new 0 0 33.293 32.896;" xml:space="preserve">
<style type="text/css">
	.st0{fill-rule:evenodd;clip-rule:evenodd;fill:#000000;}
</style>
<g>
	<path class="st0" d="M27.751,23.839l4.819,4.819c0.964,0.964,0.964,2.551,0,3.515l0,0c-0.964,0.964-2.523,0.964-3.487,0
		l-4.762-4.762c-2.693,2.013-5.896,3.033-9.099,3.033c-3.883,0-7.795-1.502-10.772-4.45C1.502,23.017,0,19.106,0,15.222
		S1.502,7.427,4.45,4.45C7.427,1.502,11.339,0,15.222,0s7.795,1.502,10.772,4.45c2.948,2.976,4.45,6.888,4.45,10.772
		C30.444,18.227,29.537,21.26,27.751,23.839L27.751,23.839z M15.222,4.082c-2.863,0-5.698,1.106-7.88,3.26
		c-2.154,2.183-3.26,5.017-3.26,7.88c0,2.835,1.106,5.698,3.26,7.88c2.183,2.154,5.017,3.26,7.88,3.26
		c2.835,0,5.698-1.106,7.88-3.26c2.154-2.183,3.26-5.046,3.26-7.88c0-2.863-1.106-5.698-3.26-7.88
		C20.92,5.187,18.057,4.082,15.222,4.082L15.222,4.082z"/>
</g>
</svg>
