<svg xmlns="http://www.w3.org/2000/svg" viewBox="0 0 120 30"><linearGradient id="a" gradientUnits="userSpaceOnUse" x1="4.151" y1="23.351" x2="4.151" y2="6.686"><stop offset=".006" stop-color="#ff8e00"/><stop offset="1" stop-color="#ff8e00"/></linearGradient><path d="M4.175 6.687c2.491 0 3.771 1.489 3.771 4.097v.51H5.525v-.674c0-1.162-.465-1.606-1.28-1.606-.814 0-1.281.444-1.281 1.606 0 3.354 5.004 3.98 5.004 8.637 0 2.606-1.303 4.095-3.816 4.095-2.516 0-3.818-1.488-3.818-4.095v-1h2.422v1.163c0 1.162.512 1.58 1.325 1.58.817 0 1.328-.418 1.328-1.581 0-3.354-5.006-3.98-5.006-8.636-.001-2.607 1.281-4.096 3.772-4.096z" fill="url(#a)"/><linearGradient id="b" gradientUnits="userSpaceOnUse" x1="15.426" y1="23.392" x2="15.426" y2="6.728"><stop offset=".006" stop-color="#ff8e00"/><stop offset="1" stop-color="#ff8e00"/></linearGradient><path d="M16.684 10.916c0-1.467-.512-1.862-1.327-1.862-.813 0-1.326.444-1.326 1.606v1.047H11.61v-.883c0-2.607 1.304-4.097 3.818-4.097 2.513 0 3.816 1.489 3.816 4.097v.419c0 1.744-.56 2.839-1.791 3.35 1.279.561 1.791 1.771 1.791 3.425v1.279c0 2.606-1.303 4.095-3.816 4.095-2.514 0-3.818-1.488-3.818-4.095v-1.352h2.421v1.515c0 1.163.513 1.605 1.326 1.605.815 0 1.327-.396 1.327-1.838v-1.282c0-1.512-.512-2.07-1.675-2.07h-.863v-2.329h1.002c.954 0 1.537-.418 1.537-1.722v-.908z" fill="url(#b)"/><linearGradient id="c" gradientUnits="userSpaceOnUse" x1="95.671" y1="23.165" x2="95.671" y2="6.835"><stop offset="0" stop-color="#03497f"/><stop offset="1" stop-color="#045189"/></linearGradient><path d="M94.389 6.835h2.564v16.33h-2.564V6.835z" fill="url(#c)"/><linearGradient id="d" gradientUnits="userSpaceOnUse" x1="104.78" y1="23.165" x2="104.78" y2="6.835"><stop offset="0" stop-color="#03497f"/><stop offset="1" stop-color="#045189"/></linearGradient><path d="M103.016 11.337v11.828h-2.307V6.835h3.219l2.637 9.776V6.835h2.287v16.33h-2.637l-3.199-11.828z" fill="url(#d)"/><linearGradient id="e" gradientUnits="userSpaceOnUse" x1="115.841" y1="23.351" x2="115.841" y2="6.649"><stop offset="0" stop-color="#03497f"/><stop offset="1" stop-color="#045189"/></linearGradient><path d="M119.666 17.077v2.168c0 2.614-1.307 4.105-3.826 4.105-2.52 0-3.824-1.491-3.824-4.105v-8.491c0-2.611 1.305-4.104 3.824-4.104 2.52 0 3.826 1.493 3.826 4.104v1.587h-2.426v-1.75c0-1.164-.516-1.611-1.33-1.611-.816 0-1.328.447-1.328 1.611v8.818c0 1.167.512 1.586 1.328 1.586.814 0 1.33-.419 1.33-1.586v-2.332h2.426z" fill="url(#e)"/><path d="M33.119 19.103c.018 1.135-.277 2.105-.883 2.91-.399.547-.961.933-1.689 1.156-.39.121-.845.182-1.364.182-.961 0-1.759-.238-2.391-.714-.528-.39-.946-.92-1.254-1.592-.307-.671-.486-1.44-.539-2.306l2.338-.168c.104.949.355 1.636.754 2.062.294.323.631.476 1.013.456.537-.016.965-.281 1.285-.792.166-.251.248-.61.248-1.078 0-.677-.308-1.348-.922-2.017l-2.184-2.067c-.814-.788-1.389-1.495-1.727-2.119a4.901 4.901 0 0 1-.546-2.289c0-1.481.499-2.604 1.494-3.366.616-.462 1.378-.691 2.288-.691.874 0 1.623.195 2.248.585.483.303.876.727 1.175 1.273.298.544.478 1.174.539 1.883l-2.351.43c-.07-.668-.261-1.186-.572-1.56-.226-.269-.55-.402-.975-.402-.451 0-.792.198-1.026.597-.191.32-.286.72-.286 1.194 0 .747.32 1.504.96 2.275.243.293.606.641 1.092 1.038.571.477.948.81 1.13 1.001.606.606 1.073 1.203 1.403 1.793.156.276.281.533.377.767.235.58.357 1.101.365 1.559zm4.733-9.757H35.24V6.878h7.664v2.468h-2.597v13.811h-2.455V9.346zM50.057 6.67c1.083 0 2.002.381 2.762 1.143.758.764 1.136 1.68 1.136 2.755v8.887c0 1.083-.381 2.003-1.144 2.761a3.767 3.767 0 0 1-2.754 1.136c-1.082 0-2-.38-2.754-1.143a3.777 3.777 0 0 1-1.129-2.754v-8.887c0-1.083.381-2.003 1.143-2.761s1.675-1.137 2.74-1.137zm1.339 3.846c0-.39-.137-.722-.409-.993a1.352 1.352 0 0 0-.995-.41 1.37 1.37 0 0 0-1 .41 1.336 1.336 0 0 0-.416.993v8.912c0 .39.138.721.416.994.277.271.611.408 1 .408.39 0 .722-.137.995-.408.272-.273.409-.604.409-.994v-8.912zm10.18-3.638c1.367 0 2.371.377 3.014 1.13.563.659.842 1.577.842 2.754v2.365c0 1.151-.436 2.125-1.311 2.923l1.82 7.106h-2.658l-1.488-6.133h-1.636v6.133h-2.456V6.878h3.873zm1.467 3.923c0-.944-.469-1.416-1.402-1.416H60.16v5.211h1.481c.391 0 .719-.139.992-.417a1.37 1.37 0 0 0 .41-1.001v-2.377zm6.58 12.355V6.865h6.988v2.467H72.08v4.444h3.309v2.468H72.08v4.444h4.531v2.468h-6.988zM88 19.103c.018 1.135-.277 2.105-.883 2.91-.4.547-.961.933-1.69 1.156a4.623 4.623 0 0 1-1.363.182c-.963 0-1.76-.238-2.391-.714-.529-.39-.949-.92-1.256-1.592-.307-.671-.486-1.44-.537-2.306l2.338-.168c.105.949.355 1.636.752 2.062.295.323.633.476 1.016.456.535-.016.967-.281 1.283-.792.166-.251.25-.61.25-1.078 0-.677-.311-1.348-.924-2.017l-2.184-2.067c-.813-.788-1.389-1.495-1.727-2.119a4.913 4.913 0 0 1-.545-2.289c0-1.481.498-2.604 1.494-3.366.615-.462 1.377-.691 2.287-.691.873 0 1.621.195 2.244.585.486.303.879.727 1.178 1.273.301.544.476 1.174.537 1.883l-2.35.43c-.068-.668-.262-1.186-.572-1.56-.227-.269-.549-.402-.973-.402-.451 0-.793.198-1.029.597-.188.32-.283.72-.283 1.194 0 .747.32 1.504.961 2.275.242.293.607.641 1.092 1.038.57.477.947.81 1.129 1.001.607.606 1.076 1.203 1.402 1.793.158.276.283.533.377.767.236.58.357 1.101.367 1.559z" fill="#028eff"/><linearGradient id="f" gradientUnits="userSpaceOnUse" x1="-2.244" y1="28.355" x2="120" y2="28.355"><stop offset=".158" stop-color="#0c8dcd"/><stop offset="1" stop-color="#03497f"/></linearGradient><path fill="url(#f)" d="M-.244 26.543H120v3.624H-.244z"/><linearGradient id="g" gradientUnits="userSpaceOnUse" x1="-2.244" y1="1.812" x2="120" y2="1.812"><stop offset=".315" stop-color="#ff8e00"/><stop offset=".909" stop-color="#ffd200"/></linearGradient><path fill="url(#g)" d="M-.244 0H120v3.624H-.244z"/></svg>