<svg xmlns="http://www.w3.org/2000/svg" viewBox="0 0 271.739 158.512"><linearGradient id="a" gradientUnits="userSpaceOnUse" x1="10.707" y1="47.237" x2="10.707" y2=".5"><stop offset=".006" stop-color="#ff8e00"/><stop offset="1" stop-color="#ff8e00"/></linearGradient><path d="M10.774.5c6.984 0 10.577 4.178 10.577 11.491v1.43H14.56v-1.892c0-3.258-1.305-4.503-3.591-4.503-2.285 0-3.592 1.245-3.592 4.503 0 9.408 14.036 11.162 14.036 24.222 0 7.312-3.655 11.487-10.705 11.487C3.655 47.237 0 43.062 0 35.75v-2.805h6.795v3.262c0 3.262 1.434 4.435 3.714 4.435 2.291 0 3.724-1.174 3.724-4.435 0-9.404-14.04-11.162-14.04-24.216C.194 4.678 3.79.5 10.774.5z" fill="url(#a)"/><linearGradient id="b" gradientUnits="userSpaceOnUse" x1="35.84" y1="47.237" x2="35.84" y2=".5"><stop offset=".006" stop-color="#ff8e00"/><stop offset="1" stop-color="#ff8e00"/></linearGradient><path d="M39.367 12.247c0-4.112-1.436-5.222-3.721-5.222-2.282 0-3.719 1.245-3.719 4.503v2.938h-6.792V11.99c0-7.313 3.656-11.491 10.707-11.491 7.048 0 10.703 4.178 10.703 11.491v1.175c0 4.892-1.568 7.959-5.022 9.396 3.587 1.568 5.022 4.964 5.022 9.601v3.587c0 7.312-3.655 11.487-10.703 11.487-7.05 0-10.707-4.176-10.707-11.487v-3.79h6.792v4.247c0 3.262 1.437 4.507 3.719 4.507 2.285 0 3.721-1.113 3.721-5.158V31.96c0-4.238-1.436-5.804-4.699-5.804h-2.421v-6.534h2.812c2.675 0 4.308-1.172 4.308-4.828v-2.547z" fill="url(#b)"/><linearGradient id="c" gradientUnits="userSpaceOnUse" x1=".489" y1="134.733" x2="199.678" y2="134.733"><stop offset=".158" stop-color="#0c8dcd"/><stop offset="1" stop-color="#03497f"/></linearGradient><path fill="url(#c)" d="M.489 111.404h199.189v46.658H.489z"/><linearGradient id="d" gradientUnits="userSpaceOnUse" x1="212.651" y1="157.986" x2="212.651" y2="111.68"><stop offset="0" stop-color="#03497f"/><stop offset="1" stop-color="#045189"/></linearGradient><path d="M209.012 111.68h7.277v46.307h-7.277V111.68z" fill="url(#d)"/><linearGradient id="e" gradientUnits="userSpaceOnUse" x1="233.057" y1="157.986" x2="233.057" y2="111.68"><stop offset="0" stop-color="#03497f"/><stop offset="1" stop-color="#045189"/></linearGradient><path d="M228.061 124.445v33.541h-6.547V111.68h9.131l7.473 27.721V111.68h6.482v46.307h-7.475l-9.064-33.542z" fill="url(#e)"/><linearGradient id="f" gradientUnits="userSpaceOnUse" x1="260.085" y1="158.512" x2="260.085" y2="111.153"><stop offset="0" stop-color="#03497f"/><stop offset="1" stop-color="#045189"/></linearGradient><path d="M270.936 140.719v6.152c0 7.41-3.703 11.641-10.854 11.641-7.143 0-10.848-4.23-10.848-11.641v-24.076c0-7.408 3.705-11.642 10.848-11.642 7.15 0 10.854 4.233 10.854 11.642v4.5h-6.883v-4.965c0-3.303-1.455-4.568-3.771-4.568-2.313 0-3.768 1.266-3.768 4.568v25.006c0 3.303 1.455 4.496 3.768 4.496 2.316 0 3.771-1.193 3.771-4.496v-6.617h6.883z" fill="url(#f)"/><linearGradient id="g" gradientUnits="userSpaceOnUse" x1="52.587" y1="23.263" x2="271.739" y2="23.263"><stop offset=".315" stop-color="#ff8e00"/><stop offset=".909" stop-color="#ffd200"/></linearGradient><path fill="url(#g)" d="M271.739 0H53.753l-1.166 46.525h219.152z"/><path d="M25.006 90.52c.05 3.297-.806 6.114-2.566 8.455-1.158 1.586-2.792 2.707-4.907 3.359-1.131.35-2.452.527-3.96.527-2.794 0-5.11-.693-6.945-2.074-1.535-1.134-2.748-2.674-3.644-4.625-.891-1.949-1.414-4.183-1.565-6.697l6.794-.489c.302 2.757 1.031 4.752 2.191 5.989.854.939 1.834 1.381 2.942 1.327 1.56-.046 2.803-.817 3.735-2.302.48-.73.718-1.774.718-3.133 0-1.967-.892-3.916-2.678-5.857-1.411-1.334-3.525-3.338-6.342-6.006-2.365-2.291-4.037-4.343-5.019-6.157-1.056-2.04-1.586-4.258-1.586-6.648 0-4.307 1.45-7.568 4.34-9.781 1.789-1.338 4.002-2.005 6.644-2.005 2.54 0 4.716.567 6.53 1.699 1.405.882 2.547 2.112 3.413 3.697.868 1.585 1.389 3.413 1.567 5.473l-6.83 1.246c-.203-1.937-.757-3.444-1.661-4.529-.656-.779-1.599-1.169-2.831-1.169-1.309 0-2.302.578-2.981 1.736-.555.93-.831 2.086-.831 3.47 0 2.166.93 4.366 2.79 6.605.704.856 1.763 1.863 3.173 3.02 1.659 1.385 2.755 2.353 3.283 2.906 1.761 1.762 3.119 3.496 4.076 5.207.452.805.814 1.55 1.094 2.228.677 1.686 1.032 3.197 1.056 4.528zm33.747-28.341h-7.587V55.01h22.267v7.169h-7.548v40.118h-7.132V62.179zm52.124-7.777c3.145 0 5.817 1.108 8.021 3.321 2.201 2.216 3.301 4.88 3.301 8.003V91.54c0 3.145-1.106 5.819-3.322 8.018-2.213 2.201-4.88 3.303-8 3.303-3.146 0-5.812-1.106-8.001-3.322-2.188-2.212-3.281-4.879-3.281-7.999V65.727c0-3.147 1.105-5.819 3.32-8.022 2.214-2.201 4.867-3.303 7.962-3.303zm3.888 11.171c0-1.131-.395-2.093-1.188-2.885-.794-.795-1.758-1.191-2.889-1.191-1.131 0-2.101.396-2.906 1.191-.806.792-1.207 1.754-1.207 2.885v25.892c0 1.131.401 2.092 1.207 2.885.806.793 1.775 1.189 2.906 1.189 1.131 0 2.095-.396 2.889-1.189.793-.793 1.188-1.754 1.188-2.885V65.573zm46.237-10.563c3.973 0 6.893 1.092 8.758 3.281 1.633 1.911 2.451 4.579 2.451 8.001v6.869c0 3.345-1.271 6.175-3.811 8.49l5.283 20.645h-7.717l-4.322-17.814h-4.754v17.814h-7.137V55.01h11.249zm4.266 11.392c0-2.74-1.359-4.112-4.078-4.112h-4.299v15.136h4.299c1.135 0 2.096-.402 2.889-1.209.793-.805 1.189-1.771 1.189-2.906v-6.909zm35.783 35.895V54.97h20.303v7.17h-13.168v12.908h9.621v7.169h-9.621v12.908h13.168v7.172h-20.303zm70.051-11.777c.053 3.297-.803 6.114-2.564 8.455-1.16 1.586-2.793 2.707-4.904 3.359-1.135.35-2.455.527-3.963.527-2.797 0-5.111-.693-6.947-2.074-1.533-1.134-2.75-2.674-3.641-4.625-.895-1.949-1.414-4.183-1.566-6.697l6.793-.489c.303 2.757 1.031 4.752 2.189 5.989.852.939 1.836 1.381 2.943 1.327 1.56-.046 2.807-.817 3.736-2.302.479-.73.717-1.774.717-3.133 0-1.967-.895-3.916-2.68-5.857l-6.34-6.006c-2.365-2.291-4.039-4.343-5.021-6.157-1.057-2.04-1.582-4.258-1.582-6.648 0-4.307 1.445-7.568 4.342-9.781 1.785-1.338 3.998-2.005 6.641-2.005 2.539 0 4.717.567 6.527 1.699 1.41.882 2.549 2.112 3.414 3.697.871 1.585 1.391 3.413 1.566 5.473l-6.83 1.246c-.199-1.937-.754-3.444-1.66-4.529-.656-.779-1.6-1.169-2.83-1.169-1.309 0-2.301.578-2.984 1.736-.551.93-.828 2.086-.828 3.47 0 2.166.932 4.366 2.793 6.605.705.856 1.762 1.863 3.17 3.02 1.662 1.385 2.756 2.353 3.285 2.906 1.762 1.762 3.119 3.496 4.072 5.207.455.805.818 1.55 1.096 2.228.681 1.686 1.031 3.197 1.056 4.528z" fill="#028eff"/></svg>