<?xml version="1.0" encoding="utf-8"?>
<!-- Generator: Adobe Illustrator 19.1.1, SVG Export Plug-In . SVG Version: 6.00 Build 0)  -->
<svg version="1.1" id="Layer_1" xmlns="http://www.w3.org/2000/svg" xmlns:xlink="http://www.w3.org/1999/xlink" x="0px" y="0px"
	 viewBox="0 0 271.739 158.512" style="enable-background:new 0 0 271.739 158.512;" xml:space="preserve">
<g>
	<linearGradient id="SVGID_1_" gradientUnits="userSpaceOnUse" x1="10.7065" y1="47.2373" x2="10.7065" y2="0.5">
		<stop  offset="0.0061" style="stop-color:#FF8E00"/>
		<stop  offset="1" style="stop-color:#FF8E00"/>
	</linearGradient>
	<path style="fill:url(#SVGID_1_);" d="M10.774,0.5c6.984,0,10.577,4.178,10.577,11.491v1.43H14.56v-1.892
		c0-3.258-1.305-4.503-3.591-4.503c-2.285,0-3.592,1.245-3.592,4.503c0,9.408,14.036,11.162,14.036,24.222
		c0,7.312-3.655,11.487-10.705,11.487C3.655,47.237,0,43.062,0,35.75v-2.805h6.795v3.262c0,3.262,1.434,4.435,3.714,4.435
		c2.291,0,3.724-1.174,3.724-4.435c0-9.404-14.04-11.162-14.04-24.216C0.194,4.678,3.79,0.5,10.774,0.5z"/>
	<linearGradient id="SVGID_2_" gradientUnits="userSpaceOnUse" x1="35.8403" y1="47.2373" x2="35.8403" y2="0.5">
		<stop  offset="0.0061" style="stop-color:#FF8E00"/>
		<stop  offset="1" style="stop-color:#FF8E00"/>
	</linearGradient>
	<path style="fill:url(#SVGID_2_);" d="M39.367,12.247c0-4.112-1.436-5.222-3.721-5.222c-2.282,0-3.719,1.245-3.719,4.503v2.938
		h-6.792v-2.476c0-7.313,3.656-11.491,10.707-11.491c7.048,0,10.703,4.178,10.703,11.491v1.175c0,4.892-1.568,7.959-5.022,9.396
		c3.587,1.568,5.022,4.964,5.022,9.601v3.587c0,7.312-3.655,11.487-10.703,11.487c-7.05,0-10.707-4.176-10.707-11.487v-3.79h6.792
		v4.247c0,3.262,1.437,4.507,3.719,4.507c2.285,0,3.721-1.113,3.721-5.158V31.96c0-4.238-1.436-5.804-4.699-5.804h-2.421v-6.534
		h2.812c2.675,0,4.308-1.172,4.308-4.828V12.247z"/>
	<g>
		<linearGradient id="SVGID_3_" gradientUnits="userSpaceOnUse" x1="0.4892" y1="134.7334" x2="199.6782" y2="134.7334">
			<stop  offset="0.1576" style="stop-color:#0C8DCD"/>
			<stop  offset="1" style="stop-color:#03497F"/>
		</linearGradient>
		<rect x="0.489" y="111.404" style="fill:url(#SVGID_3_);" width="199.189" height="46.658"/>
	</g>
	<linearGradient id="SVGID_4_" gradientUnits="userSpaceOnUse" x1="212.6508" y1="157.9864" x2="212.6508" y2="111.6797">
		<stop  offset="0" style="stop-color:#03497F"/>
		<stop  offset="1" style="stop-color:#045189"/>
	</linearGradient>
	<path style="fill:url(#SVGID_4_);" d="M209.012,111.68h7.277v46.307h-7.277V111.68z"/>
	<linearGradient id="SVGID_5_" gradientUnits="userSpaceOnUse" x1="233.0571" y1="157.9864" x2="233.0571" y2="111.6797">
		<stop  offset="0" style="stop-color:#03497F"/>
		<stop  offset="1" style="stop-color:#045189"/>
	</linearGradient>
	<path style="fill:url(#SVGID_5_);" d="M228.061,124.445v33.541h-6.547V111.68h9.131l7.473,27.721V111.68h6.482v46.307h-7.475
		L228.061,124.445z"/>
	<linearGradient id="SVGID_6_" gradientUnits="userSpaceOnUse" x1="260.0854" y1="158.5118" x2="260.0854" y2="111.1534">
		<stop  offset="0" style="stop-color:#03497F"/>
		<stop  offset="1" style="stop-color:#045189"/>
	</linearGradient>
	<path style="fill:url(#SVGID_6_);" d="M270.936,140.719v6.152c0,7.41-3.703,11.641-10.854,11.641
		c-7.143,0-10.848-4.23-10.848-11.641v-24.076c0-7.408,3.705-11.642,10.848-11.642c7.15,0,10.854,4.233,10.854,11.642v4.5h-6.883
		v-4.965c0-3.303-1.455-4.568-3.771-4.568c-2.313,0-3.768,1.266-3.768,4.568v25.006c0,3.303,1.455,4.496,3.768,4.496
		c2.316,0,3.771-1.193,3.771-4.496v-6.617H270.936z"/>
	<g>
		<linearGradient id="SVGID_7_" gradientUnits="userSpaceOnUse" x1="52.5869" y1="23.2627" x2="271.7387" y2="23.2627">
			<stop  offset="0.3152" style="stop-color:#FF8E00"/>
			<stop  offset="0.9091" style="stop-color:#FFD200"/>
		</linearGradient>
		<polygon style="fill:url(#SVGID_7_);" points="271.739,0 53.753,0 52.587,46.525 271.739,46.525 		"/>
	</g>
	<g>
		<path style="fill:#028EFF;" d="M25.006,90.52c0.05,3.297-0.806,6.114-2.566,8.455c-1.158,1.586-2.792,2.707-4.907,3.359
			c-1.131,0.35-2.452,0.527-3.96,0.527c-2.794,0-5.11-0.693-6.945-2.074c-1.535-1.134-2.748-2.674-3.644-4.625
			c-0.891-1.949-1.414-4.183-1.565-6.697l6.794-0.489c0.302,2.757,1.031,4.752,2.191,5.989c0.854,0.939,1.834,1.381,2.942,1.327
			c1.56-0.046,2.803-0.817,3.735-2.302c0.48-0.73,0.718-1.774,0.718-3.133c0-1.967-0.892-3.916-2.678-5.857
			c-1.411-1.334-3.525-3.338-6.342-6.006c-2.365-2.291-4.037-4.343-5.019-6.157c-1.056-2.04-1.586-4.258-1.586-6.648
			c0-4.307,1.45-7.568,4.34-9.781c1.789-1.338,4.002-2.005,6.644-2.005c2.54,0,4.716,0.567,6.53,1.699
			c1.405,0.882,2.547,2.112,3.413,3.697c0.868,1.585,1.389,3.413,1.567,5.473l-6.83,1.246c-0.203-1.937-0.757-3.444-1.661-4.529
			c-0.656-0.779-1.599-1.169-2.831-1.169c-1.309,0-2.302,0.578-2.981,1.736c-0.555,0.93-0.831,2.086-0.831,3.47
			c0,2.166,0.93,4.366,2.79,6.605c0.704,0.856,1.763,1.863,3.173,3.02c1.659,1.385,2.755,2.353,3.283,2.906
			c1.761,1.762,3.119,3.496,4.076,5.207c0.452,0.805,0.814,1.55,1.094,2.228C24.627,87.678,24.982,89.189,25.006,90.52z"/>
		<path style="fill:#028EFF;" d="M58.753,62.179h-7.587V55.01h22.267v7.169h-7.548v40.118h-7.132V62.179z"/>
		<path style="fill:#028EFF;" d="M110.877,54.402c3.145,0,5.817,1.108,8.021,3.321c2.201,2.216,3.301,4.88,3.301,8.003V91.54
			c0,3.145-1.106,5.819-3.322,8.018c-2.213,2.201-4.88,3.303-8,3.303c-3.146,0-5.812-1.106-8.001-3.322
			c-2.188-2.212-3.281-4.879-3.281-7.999V65.727c0-3.147,1.105-5.819,3.32-8.022C105.129,55.504,107.782,54.402,110.877,54.402z
			 M114.765,65.573c0-1.131-0.395-2.093-1.188-2.885c-0.794-0.795-1.758-1.191-2.889-1.191c-1.131,0-2.101,0.396-2.906,1.191
			c-0.806,0.792-1.207,1.754-1.207,2.885v25.892c0,1.131,0.401,2.092,1.207,2.885c0.806,0.793,1.775,1.189,2.906,1.189
			c1.131,0,2.095-0.396,2.889-1.189c0.793-0.793,1.188-1.754,1.188-2.885V65.573z"/>
		<path style="fill:#028EFF;" d="M161.002,55.01c3.973,0,6.893,1.092,8.758,3.281c1.633,1.911,2.451,4.579,2.451,8.001v6.869
			c0,3.345-1.271,6.175-3.811,8.49l5.283,20.645h-7.717l-4.322-17.814c-0.201,0-0.414,0-0.643,0h-4.111v17.814h-7.137V55.01H161.002
			z M165.268,66.402c0-2.74-1.359-4.112-4.078-4.112h-4.299v15.136h4.299c1.135,0,2.096-0.402,2.889-1.209
			c0.793-0.805,1.189-1.771,1.189-2.906V66.402z"/>
		<path style="fill:#028EFF;" d="M201.051,102.297V54.97h20.303v7.17h-13.168v12.908h9.621v7.169h-9.621v12.908h13.168v7.172
			H201.051z"/>
		<path style="fill:#028EFF;" d="M271.102,90.52c0.053,3.297-0.803,6.114-2.564,8.455c-1.16,1.586-2.793,2.707-4.904,3.359
			c-1.135,0.35-2.455,0.527-3.963,0.527c-2.797,0-5.111-0.693-6.947-2.074c-1.533-1.134-2.75-2.674-3.641-4.625
			c-0.895-1.949-1.414-4.183-1.566-6.697l6.793-0.489c0.303,2.757,1.031,4.752,2.189,5.989c0.852,0.939,1.836,1.381,2.943,1.327
			c1.56-0.046,2.807-0.817,3.736-2.302c0.479-0.73,0.717-1.774,0.717-3.133c0-1.967-0.895-3.916-2.68-5.857
			c-1.408-1.334-3.523-3.338-6.34-6.006c-2.365-2.291-4.039-4.343-5.021-6.157c-1.057-2.04-1.582-4.258-1.582-6.648
			c0-4.307,1.445-7.568,4.342-9.781c1.785-1.338,3.998-2.005,6.641-2.005c2.539,0,4.717,0.567,6.527,1.699
			c1.41,0.882,2.549,2.112,3.414,3.697c0.871,1.585,1.391,3.413,1.566,5.473l-6.83,1.246c-0.199-1.937-0.754-3.444-1.66-4.529
			c-0.656-0.779-1.6-1.169-2.83-1.169c-1.309,0-2.301,0.578-2.984,1.736c-0.551,0.93-0.828,2.086-0.828,3.47
			c0,2.166,0.932,4.366,2.793,6.605c0.705,0.856,1.762,1.863,3.17,3.02c1.662,1.385,2.756,2.353,3.285,2.906
			c1.762,1.762,3.119,3.496,4.072,5.207c0.455,0.805,0.818,1.55,1.096,2.228C270.727,87.678,271.077,89.189,271.102,90.52z"/>
	</g>
</g>
</svg>
