<?xml version="1.0" encoding="utf-8"?>
<!-- Generator: Adobe Illustrator 19.1.1, SVG Export Plug-In . SVG Version: 6.00 Build 0)  -->
<svg version="1.1" id="Layer_1" xmlns="http://www.w3.org/2000/svg" xmlns:xlink="http://www.w3.org/1999/xlink" x="0px" y="0px"
	 viewBox="0 0 120 30" style="enable-background:new 0 0 120 30;" xml:space="preserve">
<g>
	<g>
		<linearGradient id="SVGID_1_" gradientUnits="userSpaceOnUse" x1="4.1509" y1="23.3506" x2="4.1509" y2="6.6865">
			<stop  offset="0.0061" style="stop-color:#FF8E00"/>
			<stop  offset="1" style="stop-color:#FF8E00"/>
		</linearGradient>
		<path style="fill:url(#SVGID_1_);" d="M4.175,6.687c2.491,0,3.771,1.489,3.771,4.097v0.51H5.525v-0.674
			c0-1.162-0.465-1.606-1.28-1.606c-0.814,0-1.281,0.444-1.281,1.606c0,3.354,5.004,3.98,5.004,8.637
			c0,2.606-1.303,4.095-3.816,4.095c-2.516,0-3.818-1.488-3.818-4.095v-1h2.422v1.163C2.756,20.582,3.268,21,4.081,21
			c0.817,0,1.328-0.418,1.328-1.581c0-3.354-5.006-3.98-5.006-8.636C0.402,8.176,1.684,6.687,4.175,6.687z"/>
		<linearGradient id="SVGID_2_" gradientUnits="userSpaceOnUse" x1="15.4263" y1="23.3916" x2="15.4263" y2="6.7275">
			<stop  offset="0.0061" style="stop-color:#FF8E00"/>
			<stop  offset="1" style="stop-color:#FF8E00"/>
		</linearGradient>
		<path style="fill:url(#SVGID_2_);" d="M16.684,10.916c0-1.467-0.512-1.862-1.327-1.862c-0.813,0-1.326,0.444-1.326,1.606v1.047
			h-2.421v-0.883c0-2.607,1.304-4.097,3.818-4.097c2.513,0,3.816,1.489,3.816,4.097v0.419c0,1.744-0.56,2.839-1.791,3.35
			c1.279,0.561,1.791,1.771,1.791,3.425v1.279c0,2.606-1.303,4.095-3.816,4.095c-2.514,0-3.818-1.488-3.818-4.095v-1.352h2.421
			v1.515c0,1.163,0.513,1.605,1.326,1.605c0.815,0,1.327-0.396,1.327-1.838v-1.282c0-1.512-0.512-2.07-1.675-2.07h-0.863v-2.329
			h1.002c0.954,0,1.537-0.418,1.537-1.722V10.916z"/>
		<linearGradient id="SVGID_3_" gradientUnits="userSpaceOnUse" x1="95.6709" y1="23.165" x2="95.6709" y2="6.835">
			<stop  offset="0" style="stop-color:#03497F"/>
			<stop  offset="1" style="stop-color:#045189"/>
		</linearGradient>
		<path style="fill:url(#SVGID_3_);" d="M94.389,6.835h2.564v16.33h-2.564V6.835z"/>
		<linearGradient id="SVGID_4_" gradientUnits="userSpaceOnUse" x1="104.7803" y1="23.165" x2="104.7803" y2="6.835">
			<stop  offset="0" style="stop-color:#03497F"/>
			<stop  offset="1" style="stop-color:#045189"/>
		</linearGradient>
		<path style="fill:url(#SVGID_4_);" d="M103.016,11.337v11.828h-2.307V6.835h3.219l2.637,9.776V6.835h2.287v16.33h-2.637
			L103.016,11.337z"/>
		<linearGradient id="SVGID_5_" gradientUnits="userSpaceOnUse" x1="115.8408" y1="23.3506" x2="115.8408" y2="6.6494">
			<stop  offset="0" style="stop-color:#03497F"/>
			<stop  offset="1" style="stop-color:#045189"/>
		</linearGradient>
		<path style="fill:url(#SVGID_5_);" d="M119.666,17.077v2.168c0,2.614-1.307,4.105-3.826,4.105c-2.52,0-3.824-1.491-3.824-4.105
			v-8.491c0-2.611,1.305-4.104,3.824-4.104c2.52,0,3.826,1.493,3.826,4.104v1.587h-2.426v-1.75c0-1.164-0.516-1.611-1.33-1.611
			c-0.816,0-1.328,0.447-1.328,1.611v8.818c0,1.167,0.512,1.586,1.328,1.586c0.814,0,1.33-0.419,1.33-1.586v-2.332H119.666z"/>
		<g>
			<path style="fill:#028EFF;" d="M33.119,19.103c0.018,1.135-0.277,2.105-0.883,2.91c-0.399,0.547-0.961,0.933-1.689,1.156
				c-0.39,0.121-0.845,0.182-1.364,0.182c-0.961,0-1.759-0.238-2.391-0.714c-0.528-0.39-0.946-0.92-1.254-1.592
				c-0.307-0.671-0.486-1.44-0.539-2.306l2.338-0.168c0.104,0.949,0.355,1.636,0.754,2.062c0.294,0.323,0.631,0.476,1.013,0.456
				c0.537-0.016,0.965-0.281,1.285-0.792c0.166-0.251,0.248-0.61,0.248-1.078c0-0.677-0.308-1.348-0.922-2.017
				c-0.486-0.459-1.213-1.148-2.184-2.067c-0.814-0.788-1.389-1.495-1.727-2.119c-0.364-0.702-0.546-1.466-0.546-2.289
				c0-1.481,0.499-2.604,1.494-3.366c0.616-0.462,1.378-0.691,2.288-0.691c0.874,0,1.623,0.195,2.248,0.585
				c0.483,0.303,0.876,0.727,1.175,1.273c0.298,0.544,0.478,1.174,0.539,1.883l-2.351,0.43c-0.07-0.668-0.261-1.186-0.572-1.56
				c-0.226-0.269-0.55-0.402-0.975-0.402c-0.451,0-0.792,0.198-1.026,0.597c-0.191,0.32-0.286,0.72-0.286,1.194
				c0,0.747,0.32,1.504,0.96,2.275c0.243,0.293,0.606,0.641,1.092,1.038c0.571,0.477,0.948,0.81,1.13,1.001
				c0.606,0.606,1.073,1.203,1.403,1.793c0.156,0.276,0.281,0.533,0.377,0.767C32.989,18.124,33.111,18.645,33.119,19.103z"/>
			<path style="fill:#028EFF;" d="M37.852,9.346H35.24V6.878h7.664v2.468h-2.597v13.811h-2.455V9.346z"/>
			<path style="fill:#028EFF;" d="M50.057,6.67c1.083,0,2.002,0.381,2.762,1.143c0.758,0.764,1.136,1.68,1.136,2.755v8.887
				c0,1.083-0.381,2.003-1.144,2.761c-0.762,0.757-1.68,1.136-2.754,1.136c-1.082,0-2-0.38-2.754-1.143
				c-0.753-0.763-1.129-1.68-1.129-2.754v-8.887c0-1.083,0.381-2.003,1.143-2.761C48.079,7.049,48.992,6.67,50.057,6.67z
				 M51.396,10.516c0-0.39-0.137-0.722-0.409-0.993c-0.273-0.274-0.605-0.41-0.995-0.41c-0.389,0-0.723,0.136-1,0.41
				c-0.278,0.271-0.416,0.604-0.416,0.993v8.912c0,0.39,0.138,0.721,0.416,0.994c0.277,0.271,0.611,0.408,1,0.408
				c0.39,0,0.722-0.137,0.995-0.408c0.272-0.273,0.409-0.604,0.409-0.994V10.516z"/>
			<path style="fill:#028EFF;" d="M61.576,6.878c1.367,0,2.371,0.377,3.014,1.13c0.563,0.659,0.842,1.577,0.842,2.754v2.365
				c0,1.151-0.436,2.125-1.311,2.923l1.82,7.106h-2.658l-1.488-6.133c-0.066,0-0.141,0-0.219,0h-1.417v6.133h-2.456V6.878H61.576z
				 M63.043,10.801c0-0.944-0.469-1.416-1.402-1.416h-1.481v5.211h1.481c0.391,0,0.719-0.139,0.992-0.417
				c0.273-0.276,0.41-0.609,0.41-1.001V10.801z"/>
			<path style="fill:#028EFF;" d="M69.623,23.156V6.865h6.988v2.467H72.08v4.444h3.309v2.468H72.08v4.444h4.531v2.468H69.623z"/>
			<path style="fill:#028EFF;" d="M88,19.103c0.018,1.135-0.277,2.105-0.883,2.91c-0.4,0.547-0.961,0.933-1.69,1.156
				c-0.391,0.121-0.846,0.182-1.363,0.182c-0.963,0-1.76-0.238-2.391-0.714c-0.529-0.39-0.949-0.92-1.256-1.592
				c-0.307-0.671-0.486-1.44-0.537-2.306l2.338-0.168c0.105,0.949,0.355,1.636,0.752,2.062c0.295,0.323,0.633,0.476,1.016,0.456
				c0.535-0.016,0.967-0.281,1.283-0.792c0.166-0.251,0.25-0.61,0.25-1.078c0-0.677-0.311-1.348-0.924-2.017
				c-0.484-0.459-1.213-1.148-2.184-2.067c-0.813-0.788-1.389-1.495-1.727-2.119c-0.363-0.702-0.545-1.466-0.545-2.289
				c0-1.481,0.498-2.604,1.494-3.366c0.615-0.462,1.377-0.691,2.287-0.691c0.873,0,1.621,0.195,2.244,0.585
				c0.486,0.303,0.879,0.727,1.178,1.273c0.301,0.544,0.476,1.174,0.537,1.883l-2.35,0.43c-0.068-0.668-0.262-1.186-0.572-1.56
				c-0.227-0.269-0.549-0.402-0.973-0.402c-0.451,0-0.793,0.198-1.029,0.597c-0.188,0.32-0.283,0.72-0.283,1.194
				c0,0.747,0.32,1.504,0.961,2.275c0.242,0.293,0.607,0.641,1.092,1.038c0.57,0.477,0.947,0.81,1.129,1.001
				c0.607,0.606,1.076,1.203,1.402,1.793c0.158,0.276,0.283,0.533,0.377,0.767C87.869,18.124,87.99,18.645,88,19.103z"/>
		</g>
	</g>
</g>
<g>
	<linearGradient id="SVGID_6_" gradientUnits="userSpaceOnUse" x1="-2.2442" y1="28.355" x2="119.9996" y2="28.355">
		<stop  offset="0.1576" style="stop-color:#0C8DCD"/>
		<stop  offset="1" style="stop-color:#03497F"/>
	</linearGradient>
	<rect x="-0.244" y="26.543" style="fill:url(#SVGID_6_);" width="120.244" height="3.624"/>
</g>
<g>
	<linearGradient id="SVGID_7_" gradientUnits="userSpaceOnUse" x1="-2.2442" y1="1.812" x2="119.9996" y2="1.812">
		<stop  offset="0.3152" style="stop-color:#FF8E00"/>
		<stop  offset="0.9091" style="stop-color:#FFD200"/>
	</linearGradient>
	<rect x="-0.244" style="fill:url(#SVGID_7_);" width="120.244" height="3.624"/>
</g>
</svg>
