<svg id="Слой_1" xmlns="http://www.w3.org/2000/svg" viewBox="0 0 33.293 32.896"><style>.st0{fill-rule:evenodd;clip-rule:evenodd;fill:#fff}</style><path class="st0" d="M27.751 23.839l4.819 4.819a2.498 2.498 0 0 1 0 3.515 2.464 2.464 0 0 1-3.487 0l-4.762-4.762a15.193 15.193 0 0 1-9.099 3.033 15.317 15.317 0 0 1-10.772-4.45C1.502 23.017 0 19.106 0 15.222S1.502 7.427 4.45 4.45C7.427 1.502 11.339 0 15.222 0s7.795 1.502 10.772 4.45a15.314 15.314 0 0 1 4.45 10.772c0 3.005-.907 6.038-2.693 8.617zM15.222 4.082c-2.863 0-5.698 1.106-7.88 3.26-2.154 2.183-3.26 5.017-3.26 7.88 0 2.835 1.106 5.698 3.26 7.88 2.183 2.154 5.017 3.26 7.88 3.26 2.835 0 5.698-1.106 7.88-3.26a11.241 11.241 0 0 0 3.26-7.88c0-2.863-1.106-5.698-3.26-7.88a11.234 11.234 0 0 0-7.88-3.26z"/></svg>