<svg xmlns="http://www.w3.org/2000/svg" viewBox="0 0 70.809 68.57"><path d="M49.946 0a3.92 3.92 0 0 1 3.912 3.912v6.435a3.92 3.92 0 0 1-3.912 3.912c-2.126 0-3.883-1.757-3.883-3.912V3.912C46.063 1.757 47.82 0 49.946 0zM21.742 0a3.92 3.92 0 0 1 3.912 3.912v6.435a3.92 3.92 0 0 1-3.912 3.912c-2.126 0-3.883-1.757-3.883-3.912V3.912C17.858 1.757 19.616 0 21.742 0zm-3.884 29.991H51.76v34.526H3.742V29.991h14.116zm27.525-6.152h-5.868l-3.969 2.438v1.474H17.858v-7.795h47.849v35.858H53.688V27.751h-8.306v-3.912zM31.436 34.044h-5.868L21.6 36.482v5.471l3.969-2.438v20.409h5.868v-25.88zM5.017 8.277h10.006v2.069c0 3.713 3.033 6.746 6.718 6.746 3.713 0 6.746-3.033 6.746-6.746V8.277h14.74v2.069c0 3.713 3.033 6.746 6.718 6.746 3.713 0 6.746-3.033 6.746-6.746V8.277h9.099c2.75 0 5.017 2.268 5.017 5.017v50.258c0 2.75-2.268 5.017-5.017 5.017H5.017C2.268 68.57 0 66.302 0 63.553V13.294c0-2.749 2.268-5.017 5.017-5.017z" fill-rule="evenodd" clip-rule="evenodd" fill="#ff7200"/></svg>