<svg xmlns="http://www.w3.org/2000/svg" viewBox="0 0 80.135 73.66"><path d="M44.079 11.14l-15.42-6.236L8.674 6.605l16.129 6.236 19.276-1.701zm25.568-2.239L49.266 3.175l-10.8.907L54.085 9.78l1.049.397 14.513-1.276zm10.488 38.268v14.599l-1.275.282-53.943 11.594-.68.142-.567-.397L5.584 60.945l5.726.057 11.679 8.022v-7.909l2.069.028 1.134-.312v9.241l24.718-5.301V54.567l4.734-1.191v10.375l21.288-4.564V47.962l3.203-.793zM49.266-.057l.567.057 30.302 8.532v14.4l-3.203.737V11.48l-21.288 1.871v15.222L50.91 29.65V13.776L26.192 15.93v19.39l-2.126.51-1.077.057V15.562L3.203 7.909v28.998L0 37.077V4.11L49.266-.057zm30.869 26.873v16.441l-55.53 14.088L0 57.118V40.847l24.605-1.276 55.53-12.755z" fill-rule="evenodd" clip-rule="evenodd" fill="#134662"/></svg>