<svg xmlns="http://www.w3.org/2000/svg" viewBox="0 0 57.458 73.871"><path d="M46.091 59.924H11.339v-4.139c0-4.082 1.446-7.824 3.827-10.772 2.466-3.005 5.896-5.187 9.808-6.009 1.134-.227 1.871-1.361 1.644-2.494a2.085 2.085 0 0 0-1.672-1.644c-3.912-.822-7.342-3.005-9.78-5.981-2.381-2.948-3.827-6.69-3.827-10.772v-4.167h34.753v4.167c0 4.054-1.446 7.824-3.827 10.772a17.21 17.21 0 0 1-9.808 5.981c-1.134.227-1.871 1.361-1.644 2.494a2.193 2.193 0 0 0 1.672 1.672 17.14 17.14 0 0 1 9.78 5.981c2.381 2.948 3.827 6.69 3.827 10.772v4.139zM2.92 73.871h51.619a2.934 2.934 0 0 0 2.92-2.92v-8.107c0-1.587-1.332-2.92-2.92-2.92h-4.195v-4.139c0-5.102-1.786-9.78-4.791-13.465a22.17 22.17 0 0 0-6.52-5.386 21.335 21.335 0 0 0 6.52-5.386 21.186 21.186 0 0 0 4.791-13.436v-4.167h4.195a2.934 2.934 0 0 0 2.92-2.92V2.92c0-1.587-1.332-2.92-2.92-2.92H2.92C1.332 0 0 1.332 0 2.92v8.107a2.934 2.934 0 0 0 2.92 2.92h4.167v4.167c0 5.074 1.814 9.751 4.791 13.436 1.814 2.211 4.025 4.054 6.548 5.386a22.283 22.283 0 0 0-6.548 5.386c-2.976 3.685-4.791 8.362-4.791 13.465v4.139H2.92c-1.587 0-2.92 1.332-2.92 2.92v8.107c0 1.614 1.332 2.918 2.92 2.918z" fill-rule="evenodd" clip-rule="evenodd" fill="#ff7200"/></svg>