<?xml version="1.0" encoding="utf-8"?>
<!-- Generator: Adobe Illustrator 19.1.1, SVG Export Plug-In . SVG Version: 6.00 Build 0)  -->
<svg version="1.1" id="Слой_1" xmlns="http://www.w3.org/2000/svg" xmlns:xlink="http://www.w3.org/1999/xlink" x="0px" y="0px"
	 viewBox="0 0 70.809 68.57" style="enable-background:new 0 0 70.809 68.57;" xml:space="preserve">
<g>
	<path style="fill-rule:evenodd;clip-rule:evenodd;fill:#FF7200;" d="M49.946,0L49.946,0c2.154,0,3.912,1.757,3.912,3.912v6.435
		c0,2.154-1.757,3.912-3.912,3.912l0,0c-2.126,0-3.883-1.757-3.883-3.912V3.912C46.063,1.757,47.82,0,49.946,0L49.946,0z M21.742,0
		L21.742,0c2.154,0,3.912,1.757,3.912,3.912v6.435c0,2.154-1.757,3.912-3.912,3.912l0,0c-2.126,0-3.883-1.757-3.883-3.912V3.912
		C17.858,1.757,19.616,0,21.742,0L21.742,0z M17.858,29.991h33.902v25.824v8.702H3.742V29.991H17.858z M45.383,23.839h-5.868
		l-3.969,2.438v1.474H17.858v-7.795h47.849v35.858H53.688V27.751h-8.306V23.839z M31.436,34.044h-5.868L21.6,36.482v5.471
		l3.969-2.438v20.409h5.868V34.044z M5.017,8.277h10.006v2.069c0,3.713,3.033,6.746,6.718,6.746l0,0
		c3.713,0,6.746-3.033,6.746-6.746V8.277h14.74v2.069c0,3.713,3.033,6.746,6.718,6.746l0,0c3.713,0,6.746-3.033,6.746-6.746V8.277
		h9.099c2.75,0,5.017,2.268,5.017,5.017v50.258c0,2.75-2.268,5.017-5.017,5.017H5.017C2.268,68.57,0,66.302,0,63.553V13.294
		C0,10.545,2.268,8.277,5.017,8.277L5.017,8.277z"/>
</g>
</svg>
