<?xml version="1.0" encoding="utf-8"?>
<!-- Generator: Adobe Illustrator 19.1.1, SVG Export Plug-In . SVG Version: 6.00 Build 0)  -->
<svg version="1.1" id="Слой_1" xmlns="http://www.w3.org/2000/svg" xmlns:xlink="http://www.w3.org/1999/xlink" x="0px" y="0px"
	 viewBox="0 0 80.135 73.66" style="enable-background:new 0 0 80.135 73.66;" xml:space="preserve">
<g>
	<path style="fill-rule:evenodd;clip-rule:evenodd;fill:#134662;" d="M44.079,11.14l-15.42-6.236L8.674,6.605l16.129,6.236
		L44.079,11.14z M69.647,8.901L49.266,3.175l-10.8,0.907L54.085,9.78l1.049,0.397L69.647,8.901z M80.135,47.169v13.323v1.276
		L78.86,62.05L24.917,73.644l-0.68,0.142l-0.567-0.397L5.584,60.945l5.726,0.057l11.679,8.022v-7.909l2.069,0.028l1.134-0.312v9.241
		l24.718-5.301V54.567l4.734-1.191v10.375l21.288-4.564V47.962L80.135,47.169z M49.266-0.057L49.833,0l30.302,8.532v1.191v13.209
		l-3.203,0.737V11.48l-21.288,1.871v15.222L50.91,29.65V13.776l-24.718,2.154V35.32l-2.126,0.51l-1.077,0.057V15.562L3.203,7.909
		v28.998L0,37.077V5.584V4.11L49.266-0.057z M80.135,26.816v16.441L24.605,57.345L0,57.118V40.847l24.605-1.276L80.135,26.816z"/>
</g>
</svg>
