<?xml version="1.0" encoding="utf-8"?>
<!-- Generator: Adobe Illustrator 19.1.1, SVG Export Plug-In . SVG Version: 6.00 Build 0)  -->
<svg version="1.1" id="Слой_1" xmlns="http://www.w3.org/2000/svg" xmlns:xlink="http://www.w3.org/1999/xlink" x="0px" y="0px"
	 viewBox="0 0 57.458 73.871" style="enable-background:new 0 0 57.458 73.871;" xml:space="preserve">
<g>
	<path style="fill-rule:evenodd;clip-rule:evenodd;fill:#FF7200;" d="M46.091,59.924H11.339v-4.139
		c0-4.082,1.446-7.824,3.827-10.772c2.466-3.005,5.896-5.187,9.808-6.009c1.134-0.227,1.871-1.361,1.644-2.494
		c-0.17-0.85-0.85-1.502-1.672-1.644c-3.912-0.822-7.342-3.005-9.78-5.981c-2.381-2.948-3.827-6.69-3.827-10.772v-4.167h34.753
		v4.167c0,4.054-1.446,7.824-3.827,10.772c-2.438,3.005-5.896,5.159-9.808,5.981c-1.134,0.227-1.871,1.361-1.644,2.494
		c0.198,0.879,0.879,1.502,1.672,1.672c3.912,0.822,7.342,2.976,9.78,5.981c2.381,2.948,3.827,6.69,3.827,10.772V59.924z
		 M2.92,73.871h51.619c1.587,0,2.92-1.304,2.92-2.92v-8.107c0-1.587-1.332-2.92-2.92-2.92h-4.195v-4.139
		c0-5.102-1.786-9.78-4.791-13.465c-1.786-2.183-4.025-4.025-6.52-5.386c2.494-1.332,4.734-3.175,6.52-5.386
		c3.005-3.685,4.791-8.362,4.791-13.436v-4.167h4.195c1.587,0,2.92-1.304,2.92-2.92V2.92c0-1.587-1.332-2.92-2.92-2.92H2.92
		C1.332,0,0,1.332,0,2.92v8.107c0,1.616,1.332,2.92,2.92,2.92h4.167v4.167c0,5.074,1.814,9.751,4.791,13.436
		c1.814,2.211,4.025,4.054,6.548,5.386c-2.523,1.361-4.734,3.203-6.548,5.386c-2.976,3.685-4.791,8.362-4.791,13.465v4.139H2.92
		c-1.587,0-2.92,1.332-2.92,2.92v8.107C0,72.567,1.332,73.871,2.92,73.871L2.92,73.871z"/>
</g>
</svg>
